<?xml version="1.0" encoding="utf-8"?>
<svg viewBox="0.821 2.2553 1233.5819 1232.9679" xmlns="http://www.w3.org/2000/svg" xmlns:bx="https://boxy-svg.com">
  <g transform="matrix(1, 0, 0, 1, 1.7865719795224777, 1.0154320001602741)">
    <title>Icon</title>
    <rect x="1420.264" y="429.185" width="1233.482" height="1232.868" style="fill: rgb(118, 74, 188); transform-box: fill-box; transform-origin: 50% 50%;" transform="matrix(1, 0.000081, -0.000081, 1, -1421.179727, -427.895153)"/>
    <g transform="matrix(0.047998, 0.00014, 0, -0.045177, 288.780396, 909.894775)" fill="#764abc" stroke="none" style="">
      <rect x="-6759.976" y="-10224.126" width="7303.254" height="1771.25" rx="657.702" ry="657.702" style="fill: rgb(255, 255, 255); transform-box: fill-box; transform-origin: 50% 50%;" transform="matrix(0.711489, -0.702698, -0.659838, -0.753819, 11963.709587, 18049.97965)"/>
      <path d="M 8615.577 12067.852 C 8541.549 12051.007 8462.488 12017.168 8396.408 11972.301 C 8341.337 11935.412 8032.798 11636.039 8032.771 11620.041 C 8032.757 11614.039 8818.323 10820.434 9777.579 9857.47 L 11522.41 8105.898 L 11697.729 8283.542 C 11893.088 8481.147 11933.191 8538.062 11967.43 8670.995 C 12006.706 8822.916 11986.011 8991.96 11911.252 9125.112 C 11871.381 9197.195 11866.391 9202.205 11307.429 9776.349 L 10941.112 10153.098 L 11288.741 10502.391 C 11488.102 10701.983 11652.413 10874.654 11671.467 10904.614 C 11730.636 10998.494 11753.782 11078.448 11760.003 11201.434 C 11765.239 11331.427 11750.37 11404.453 11697.563 11511.565 C 11547.109 11811.873 11178.326 11932.627 10870.055 11781.255 C 10803.998 11748.389 10766.932 11714.463 10435.34 11386.139 L 10072.692 11025.875 L 9924.95 11170.178 C 9844.094 11249.344 9632.469 11456.777 9455.783 11630.137 C 9265.127 11817.528 9110.383 11960.844 9074.424 11982.918 C 8945.573 12066.181 8758.635 12100.563 8615.577 12067.852 Z" style="transform-origin: 10009.6px 10093.2px; fill: rgb(255, 255, 255);"/>
      <path d="M 6534.684 11734.609 C 6383.596 11696.567 6328.48 11655.502 6036.454 11365.479 C 5755.434 11086.457 5701.371 11018.354 5658.33 10886.276 C 5623.318 10776.203 5621.318 10629.054 5654.329 10523.975 C 5678.822 10444.499 5685.85 10410.633 5809.435 10273.789 C 5932.944 10137.029 6172.951 9897.272 6663.447 9405.776 L 7495.799 8521.093 L 7495.821 8521.07 L 7495.846 8521.05 L 7680.151 8369.73 L 7724.928 8255.684 L 7724.995 8255.614 L 7956.303 8010.842 L 8121.785 7866.559 L 8302.495 7727.327 L 8480.293 7588.726 L 9349.453 6720.77 C 9838.453 6232.77 10077.711 5993.761 10213.846 5870.628 C 10350.063 5747.42 10383.181 5740.14 10459.658 5715.646 C 10514.7 5698.637 10552.771 5693.626 10639.806 5694.624 C 10735.846 5694.627 10760.933 5698.643 10834.976 5724.654 C 10881.999 5741.663 10945.054 5771.688 10975.083 5791.708 C 11005.119 5811.731 11154.156 5952.767 11306.161 6105.772 C 11605.184 6407.798 11632.247 6443.909 11670.289 6588.995 C 11695.298 6683.063 11693.294 6825.202 11665.283 6914.274 C 11652.294 6955.699 11652.299 6976.723 11621.441 7023.026 C 11590.643 7069.239 11529.051 7140.71 11392.918 7283.219 C 11120.663 7568.224 10550.159 8137.478 9331.16 9357.477 C 7631.159 11059.478 7072.122 11612.508 7017.085 11649.539 C 6916.018 11717.571 6836.885 11741.613 6699.82 11745.624 C 6628.796 11747.623 6570.727 11743.616 6534.684 11734.609 Z M 6699.792 11744.624 C 6836.726 11740.635 6915.594 11716.677 7016.527 11648.709 C 7071.49 11611.739 7630.453 11058.77 9330.452 9356.771 C 10549.453 8136.77 11119.949 7567.524 11392.194 7282.529 C 11528.311 7140.038 11589.845 7068.634 11620.609 7022.472 C 11651.313 6976.4 11651.317 6955.549 11664.329 6913.975 C 11692.317 6825.046 11694.314 6683.185 11669.323 6589.253 C 11631.365 6444.339 11604.428 6408.45 11305.451 6106.476 C 11153.457 5953.482 11004.493 5812.517 10974.529 5792.54 C 10944.558 5772.56 10881.615 5742.586 10834.638 5725.595 C 10760.683 5699.607 10735.766 5695.621 10639.806 5695.624 C 10552.841 5694.622 10514.915 5699.61 10459.956 5716.601 C 10383.435 5741.106 10350.549 5748.328 10214.516 5871.37 C 10078.401 5994.487 9839.159 6233.478 9350.159 6721.478 L 8480.978 7589.455 L 8480.957 7589.476 L 8303.108 7728.116 L 8122.407 7867.342 L 7956.979 8011.58 L 7725.788 8256.23 L 7680.987 8370.338 L 7680.886 8370.42 L 7496.505 8521.802 L 6664.17 9406.467 C 6173.67 9897.967 5933.668 10137.719 5810.177 10274.459 C 5686.762 10411.115 5679.79 10444.748 5655.284 10524.271 C 5622.295 10629.193 5624.294 10776.043 5659.282 10885.971 C 5702.24 11017.892 5756.178 11085.791 6037.158 11364.769 C 6329.132 11654.746 6384.016 11695.681 6534.928 11733.639 C 6570.884 11742.632 6628.816 11746.625 6699.792 11744.624 Z" style="fill: none;"/>
      <path d="M 6394.46 5427.882 L 7151.796 6571.021 L 5637.124 6571.021 L 6394.46 5427.882 Z" transform="matrix(-0.686499, 0.727131, 0.675917, 0.740744, -3894.041502, -4029.755156)" style="transform-box: fill-box; transform-origin: 50% 50%; fill: rgb(255, 255, 255);" bx:shape="triangle 5637.124 5427.882 1514.672 1143.139 0.5 0 1@3a578267"/>
      <rect x="6715.573" y="12146.173" width="7417.444" height="1638.783" transform="matrix(0.684325, 0.729177, 0.687705, -0.728515, -4686.705762, -7538.141315)" style="transform-box: fill-box; transform-origin: 50% 50%; fill: rgb(255, 255, 255);"/>
    </g>
  </g>
</svg>