<?xml version="1.0" encoding="utf-8"?>
<svg viewBox="0 0 1233 1233" xmlns="http://www.w3.org/2000/svg">
  <g>
    <rect x="32.901" y="74.25" width="1167.199" height="1084.5" style="stroke: rgb(0, 0, 0); fill: color(srgb-linear 1 1 1);"/>
    <g transform="matrix(0.056149, 0.000163, 0, -0.053764, 240.404556, 978.249451)" fill="#764abc" stroke="none" style="">
      <path d="M8612 12065 c-74 -17 -153 -51 -219 -96 -55 -37 -363 -337 -363 -353 0 -6 787 -798 1748 -1759 l1748 -1748 175 178 c195 198 235 255 269 388 39 152 18 321 -57 454 -40 72 -45 77 -605 650 l-367 376 347 350 c199 200 363 373 382 403 59 94 82 174 88 297 5 130 -10 203 -63 310 -151 300 -520 420 -828 268 -66 -33 -103 -67 -434 -396 l-362 -361 -148 144 c-81 79 -293 286 -470 459 -191 187 -346 330 -382 352 -129 83 -316 117 -459 84z"/>
      <path d="M 6534.806 11734.124 C 6383.806 11696.124 6328.806 11655.124 6036.806 11365.124 C 5755.806 11086.124 5701.806 11018.124 5658.806 10886.124 C 5623.806 10776.124 5621.806 10629.124 5654.806 10524.124 C 5703.806 10365.124 5682.806 10389.124 6663.806 9406.124 L 7569.806 8499.124 L 4946.806 5876.124 L 2324.806 3254.124 L 2759.806 2819.124 L 3194.806 2384.124 L 5817.806 5006.124 L 8439.806 7629.124 L 9349.806 6721.124 C 10327.806 5745.124 10306.806 5765.124 10459.806 5716.124 C 10514.806 5699.124 10552.806 5694.124 10639.806 5695.124 C 10735.806 5695.124 10760.806 5699.124 10834.806 5725.124 C 10881.806 5742.124 10944.806 5772.124 10974.806 5792.124 C 11004.806 5812.124 11153.806 5953.124 11305.806 6106.124 C 11604.806 6408.124 11631.806 6444.124 11669.806 6589.124 C 11694.806 6683.124 11692.806 6825.124 11664.806 6914.124 C 11612.806 7080.124 11768.806 6917.124 9330.806 9357.124 C 7630.806 11059.124 7071.806 11612.124 7016.806 11649.124 C 6915.806 11717.124 6836.806 11741.124 6699.806 11745.124 C 6628.806 11747.124 6570.806 11743.124 6534.806 11734.124 Z"/>
      <path d="M1838 2343 c-85 -318 -154 -579 -152 -581 1 -3 1076 282 1148 304 15 5 -66 91 -405 430 -233 233 -427 424 -430 424 -3 0 -75 -260 -161 -577z"/>
    </g>
  </g>
</svg>